#tb 0: 1/11025
0,          0,          0,        0,    67584, 0x5eae629b
0,        220,        220,        0,    67584, 0x32591227
0,        440,        440,        0,    67584, 0x4e4424c7
0,        660,        660,        0,    67584, 0x70db0134
0,        880,        880,        0,    67584, 0x3550ed0b
0,       1100,       1100,        0,    67584, 0x86fe3eef
0,       1320,       1320,        0,    67584, 0x3414bb33
0,       1540,       1540,        0,    67584, 0x667bfb91
0,       1760,       1760,        0,    67584, 0x6e1a4ccb
0,       1980,       1980,        0,    67584, 0xf723f9ae
0,       2200,       2200,        0,    67584, 0x88481d5d
